<?xml version="1.0" encoding="UTF-8"?>
<svg id="Layer_1" data-name="Layer 1" xmlns="http://www.w3.org/2000/svg" viewBox="0 0 375 95.74" fill="white">
  <g fill="white">
    <path d="M116.05,84.19h-2.31l.83-1.77h7.22l-.83,1.77h-2.26l-5.35,11.37h-2.65l5.35-11.37Z"/>
    <path d="M130.94,91.44l2.32-4.93c1.25-2.66,3.07-4.24,6.19-4.24s3.44,1.57,2.19,4.24l-2.32,4.93c-1.24,2.64-3.1,4.3-6.2,4.3s-3.43-1.64-2.17-4.3ZM136.36,92.01l2.85-6.05c.52-1.1.71-1.93-.58-1.93s-1.9.83-2.41,1.93l-2.85,6.05c-.51,1.09-.73,1.96.58,1.96s1.9-.88,2.41-1.96Z"/>
    <path d="M153.18,91.44l2.32-4.93c1.25-2.66,3.07-4.24,6.19-4.24s3.44,1.57,2.19,4.24l-2.32,4.93c-1.24,2.64-3.1,4.3-6.2,4.3s-3.43-1.64-2.17-4.3ZM158.6,92.01l2.85-6.05c.52-1.1.71-1.93-.58-1.93s-1.9.83-2.42,1.93l-2.85,6.05c-.51,1.09-.72,1.96.58,1.96s1.9-.88,2.41-1.96Z"/>
    <path d="M179.81,82.42h2.64l-5.41,11.51h3.53l-.77,1.64h-6.17l6.18-13.14Z"/>
    <path d="M204.09,91.73l2.47-.41c-.66,1.56-.72,2.56.44,2.56.84,0,1.45-.52,1.78-1.23.53-1.14.18-1.77-.41-2.52l-1.15-1.44c-.66-.81-.88-1.72-.19-3.18.98-2.08,2.96-3.25,5.28-3.25,2.73,0,2.72,1.66,1.96,3.57l-2.45.36c.53-1.23.76-2.16-.4-2.16-.79,0-1.47.53-1.8,1.23-.42.89-.24,1.38.25,1.98l1.13,1.44c.75.93,1.19,2.08.38,3.81-.89,1.9-2.99,3.23-5.16,3.23-2.65,0-3.25-1.39-2.13-4.01Z"/>
    <path d="M230.7,84.19h-2.31l.83-1.77h7.22l-.83,1.77h-2.26l-5.35,11.37h-2.65l5.35-11.37Z"/>
    <path d="M245.59,91.44l2.32-4.93c1.25-2.66,3.07-4.24,6.19-4.24s3.44,1.57,2.19,4.24l-2.32,4.93c-1.24,2.64-3.1,4.3-6.2,4.3s-3.43-1.64-2.17-4.3ZM251.01,92.01l2.85-6.05c.52-1.1.71-1.93-.58-1.93s-1.9.83-2.41,1.93l-2.85,6.05c-.51,1.09-.73,1.96.58,1.96s1.9-.88,2.41-1.96Z"/>
    <path d="M272.22,82.42h3.5c2.91,0,4.16.84,2.91,3.49-.74,1.57-1.69,2.68-3.29,3.18l-1.02,6.47h-2.65l1.09-6.02h-1.26l-2.83,6.02h-2.64l6.18-13.14ZM273.05,88.05c1.53,0,2.36-.6,3.03-2.01.63-1.33.52-1.98-1-1.98h-.99l-1.88,3.99h.84Z"/>
    <path d="M296.93,82.42h2.83l-3.28,13.14h-2.46l.85-3.03h-2.53l-2.02,3.03h-2.49l9.09-13.14ZM295.32,91l1.61-5.52-3.58,5.52h1.97Z"/>
    <path d="M311.8,91.23l2.08-4.41c1.33-2.82,3.09-4.54,6.28-4.54,2.98,0,3.36,1.4,2.22,3.83l-.32.68h-2.53l.35-.75c.59-1.27.8-2.01-.51-2.01-1.4,0-1.99,1.02-2.55,2.22l-2.59,5.5c-.64,1.36-.76,2.22.53,2.22s2.02-.91,2.69-2.34l.58-1.23h-1.56l.71-1.51h3.95l-3.14,6.67h-1.72l.43-1.28c-.79.84-1.8,1.46-3.14,1.46-2.87,0-3.06-1.74-1.75-4.51Z"/>
    <path d="M338.23,82.42h6.1l-.79,1.69h-3.46l-1.78,3.78h2.73l-.79,1.67h-2.73l-2.05,4.37h3.5l-.77,1.64h-6.13l6.18-13.14Z"/>
  </g>
  <g fill="white">
    <polygon points="274.46 46.47 260.48 46.47 266.07 34.48 277.65 34.48 286.67 24.88 270.54 24.88 261.86 24.88 257.1 24.88 234.1 74.2 247.55 74.2 256.36 55.3 265.79 55.3 274.46 46.47"/>
    <polygon points="288.9 24.88 267.17 71.48 267.17 71.48 264.46 74.2 265.91 74.2 265.91 74.2 279.35 74.2 302.35 24.88 288.9 24.88"/>
    <path d="M324.13,54.07c2.53-1.74,4.45-4.04,5.79-6.91l5.95-12.75c1.34-2.87,1.56-5.17.65-6.91-.91-1.74-3.41-2.61-7.51-2.61h-22.8l-23,49.31h13.44l8.17-17.51h.87l-.35,17.51h14.45l-.68-18.03c1.92-.42,3.61-1.12,5.03-2.1ZM316.04,47.12c-.45.28-1,.42-1.66.42h-5.3l6.1-13.05h5.29c.68,0,1.09.14,1.27.42.18.28.14.7-.13,1.27l-4.52,9.67c-.26.57-.61.99-1.04,1.27Z"/>
    <polygon points="365.98 34.48 375 24.88 358.87 24.88 353.49 24.88 353.5 24.88 341.44 24.88 344.16 27.6 344.16 27.6 322.43 74.2 327.19 74.2 335.87 74.2 348.15 74.2 357.17 64.6 340.35 64.6 345.22 54.15 354.58 54.15 363.6 44.55 349.7 44.55 354.39 34.48 365.98 34.48"/>
  </g>
  <g fill="white">
    <path d="M79.17,54.07c2.53-1.74,4.46-4.04,5.8-6.91l5.95-12.75c1.34-2.87,1.55-5.17.65-6.91s-3.41-2.61-7.5-2.61h-14.75,0s-12.06,0-12.06,0l2.72,2.72h0s-21.73,46.59-21.73,46.59h13.45l8.17-17.51h.87l-.35,17.51h14.44l-.68-18.03c1.92-.42,3.6-1.12,5.02-2.1ZM71.09,47.12c-.43.28-.99.42-1.65.42h-5.3l6.09-13.05h5.3c.66,0,1.08.14,1.26.42s.13.7-.12,1.27l-4.52,9.67c-.26.57-.61.99-1.05,1.27Z"/>
    <path d="M119.14,24.89h0s-12.06,0-12.06,0l2.72,2.72h0s-33.7,46.59-33.7,46.59h13.21l5.06-7.37h11.79l-1.88,7.37h13.52l10.32-49.31h-8.99ZM108.57,57.31h-7.67l12.17-17.76-4.5,17.76Z"/>
    <path d="M162.79,52.84l2.76-5.91h-12.74l-8.52,8.53h3.84l-3.83,8.22c-.26.56-.61.99-1.05,1.27-.44.28-.99.42-1.66.42h-2.76c-.67,0-1.09-.14-1.26-.42-.18-.28-.13-.7.13-1.27l13.18-28.27c.26-.56.61-.99,1.05-1.27.44-.28.99-.42,1.66-.42h2.76c.67,0,1.09.14,1.26.42.18.28.13.7-.13,1.27l-2.97,6.38h13.44l3.44-7.37c1.34-2.87,1.55-5.17.65-6.91-.9-1.74-3.4-2.61-7.5-2.61h-10.91c-4.1,0-7.41.87-9.94,2.61-2.53,1.74-4.46,4.05-5.8,6.91l-14.11,30.27c-1.34,2.87-1.56,5.17-.65,6.91.9,1.74,3.4,2.61,7.5,2.61h10.91c4.1,0,7.41-.87,9.94-2.61,2.53-1.74,4.46-4.04,5.8-6.91l4.3-9.22,1.22-2.61Z"/>
    <path d="M204.1,45.47l.46-1,4.69-10.06c1.34-2.87,1.56-5.17.66-6.91-.91-1.74-3.41-2.61-7.5-2.61h-11.37c-4.1,0-7.41.87-9.94,2.61-2.52,1.74-4.45,4.04-5.79,6.91l-4.69,10.06-.46,1-8.97,19.2c-1.34,2.87-1.56,5.17-.65,6.91.91,1.74,3.41,2.61,7.51,2.61h11.37c4.08,0,7.4-.87,9.93-2.61,2.53-1.74,4.46-4.04,5.8-6.91l8.95-19.2ZM191.13,44.47l-.48,1-8.13,17.43c-.27.57-.62.99-1.05,1.27-.43.28-.99.42-1.65.42h-3.23c-.66,0-1.08-.14-1.26-.42-.17-.28-.13-.7.12-1.27l8.13-17.43.47-1,3.87-8.29c.26-.57.61-.99,1.06-1.27.43-.28.99-.42,1.65-.42h3.23c.66,0,1.08.14,1.26.42s.13.7-.12,1.27l-3.87,8.29Z"/>
    <polygon points="240.47 24.88 228.18 51.23 229.48 24.88 226.03 24.88 226.04 24.88 213.98 24.88 216.69 27.6 194.96 74.2 207.25 74.2 219.33 48.31 218.24 74.2 229.76 74.2 252.76 24.88 240.47 24.88"/>
    <path d="M47.35,45.47l.26-.54.22-.46,1.75-3.75c1.81-3.96,2.22-7.18,1.66-9.78-.42-2.06-1.43-3.73-2.8-5.06-.22-.23-.45-.43-.68-.62-1.41-1.2-3.11-2.1-4.9-2.76.53-.39,2.77-1.28,5.26-1.46-1.88-1.26-4.87-1.95-8.01-1.95-2.27,0-4.64.37-6.71,1.12.32-.91,2.15-3.02,3.88-4.61-1.53.49-6.02,1.73-11.73,6.19,1.12-7.82,12.01-15.19,7.3-21.8.69,4.64-6.99,10.87-9.49,13.61-2.49,2.73-5.57,5.53-6.15,10.52-3.81,2.66-5.5,5.91-5.79,9.9-.27,3.98-1.8,6.26-3.77,6.37h-.18c-1.8,0-2-1.39-2.07-3.95-3.71,4.33-4.53,11.56-2.15,16.72,1.49-3.91,4.06-6.02,8.07-7.57,1.24-1.89,1.92-3.03,3.81-3.87.61-.26,1.34-.49,2.27-.7-2.73,1.24-4.08,4.22-4.29,6.44-.24.05-.5.11-.74.19-1.81.58-3.44,1.89-4.88,4.65.87.31,1.64.57,2.38.72.57.11,1.11.18,1.67.18,1.5,0,3.09-.45,5.28-1.49-5.76-4.65,7.09-8.04,11.36-9.15,1.01-1.96,2.3-4.51.81-12.23,1.1-.19,2.1-.27,3.02-.27,2.42,0,4.25.61,5.6,1.64.22.18.43.37.62.55,2.92,2.88,2.93,8.11,1.66,12.69-.38,1.35-.87,2.64-1.42,3.8.41-1.37.71-2.64.89-3.8.65-3.85.22-6.71-.81-8.74-.52-1.03-1.19-1.85-1.96-2.47-1.37-1.12-3.04-1.65-4.67-1.72.04.31.11.92.15,2.2.03.6.04,1.31.04,2.22,3.99.81,4.94,4.07,4.21,8.51-.86,5.32-7.51,18.84-7.55,18.88-.51.96-1.28,1.5-2.4,1.56h-8.82s8.76-18.78,9.42-20.21c-4.99.46-10.04,2.6-10.34,3.98-.11.53.69,1.23,1.04,1.51l1.66,1.35-1.94.92c-2.38,1.14-4.12,1.62-5.86,1.62-.63,0-1.27-.07-1.95-.2-.11-.03-.2-.04-.31-.07L0,74.2h22.67c.24,0,.49,0,.72-.01,3.77-.09,6.84-.96,9.22-2.6,2.51-1.74,4.45-4.04,5.79-6.91l8.95-19.2ZM4.15,45.36c-.07-1.07-.04-2.22.43-3,.15.22.83,1,1.25,1.26-.27.2-1.04.89-1.68,1.74ZM17.54,33.45c-2.32,1.18-4.84,2.85-5.15,3.06,1.43-2.49,3.92-5.52,5.77-6.57-.52,2.11-.62,3.52-.62,3.52Z"/>
  </g>
</svg>